<mxfile host="Electron" modified="2023-11-06T02:21:37.223Z" agent="Mozilla/5.0 (Windows NT 10.0; Win64; x64) AppleWebKit/537.36 (KHTML, like Gecko) draw.io/22.0.3 Chrome/114.0.5735.289 Electron/25.8.4 Safari/537.36" etag="g1iNtchVGZgCFDZmmYFy" version="22.0.3" type="device">
  <diagram id="C5RBs43oDa-KdzZeNtuy" name="Page-1">
    <mxGraphModel dx="2389" dy="917" grid="1" gridSize="10" guides="1" tooltips="1" connect="1" arrows="1" fold="1" page="1" pageScale="1" pageWidth="827" pageHeight="1169" math="0" shadow="0">
      <root>
        <mxCell id="WIyWlLk6GJQsqaUBKTNV-0" />
        <mxCell id="WIyWlLk6GJQsqaUBKTNV-1" parent="WIyWlLk6GJQsqaUBKTNV-0" />
        <mxCell id="dDIwDJEJSTGHqXr8lB01-47" value="" style="shape=folder;fontStyle=1;spacingTop=10;tabWidth=40;tabHeight=20;tabPosition=left;html=1;whiteSpace=wrap;" parent="WIyWlLk6GJQsqaUBKTNV-1" vertex="1">
          <mxGeometry x="-790" y="470" width="1920" height="370" as="geometry" />
        </mxCell>
        <mxCell id="dDIwDJEJSTGHqXr8lB01-43" value="" style="shape=folder;fontStyle=1;spacingTop=10;tabWidth=40;tabHeight=20;tabPosition=left;html=1;whiteSpace=wrap;" parent="WIyWlLk6GJQsqaUBKTNV-1" vertex="1">
          <mxGeometry x="-800" y="90" width="1930" height="370" as="geometry" />
        </mxCell>
        <mxCell id="dDIwDJEJSTGHqXr8lB01-5" style="edgeStyle=orthogonalEdgeStyle;rounded=0;orthogonalLoop=1;jettySize=auto;html=1;dashed=1;exitX=0.5;exitY=0;exitDx=0;exitDy=0;" parent="WIyWlLk6GJQsqaUBKTNV-1" source="qvqpCW7Pz-lQNfFqi8u_-4" target="dDIwDJEJSTGHqXr8lB01-2" edge="1">
          <mxGeometry relative="1" as="geometry" />
        </mxCell>
        <mxCell id="qvqpCW7Pz-lQNfFqi8u_-4" value="CardPile" style="swimlane;fontStyle=0;childLayout=stackLayout;horizontal=1;startSize=26;fillColor=none;horizontalStack=0;resizeParent=1;resizeParentMax=0;resizeLast=0;collapsible=1;marginBottom=0;whiteSpace=wrap;html=1;" parent="WIyWlLk6GJQsqaUBKTNV-1" vertex="1">
          <mxGeometry x="250" y="310" width="150" height="52" as="geometry" />
        </mxCell>
        <mxCell id="qvqpCW7Pz-lQNfFqi8u_-5" value="- pile: Stack&amp;lt;Card&amp;gt;" style="text;strokeColor=none;fillColor=none;align=left;verticalAlign=top;spacingLeft=4;spacingRight=4;overflow=hidden;rotatable=0;points=[[0,0.5],[1,0.5]];portConstraint=eastwest;whiteSpace=wrap;html=1;" parent="qvqpCW7Pz-lQNfFqi8u_-4" vertex="1">
          <mxGeometry y="26" width="150" height="26" as="geometry" />
        </mxCell>
        <mxCell id="dDIwDJEJSTGHqXr8lB01-6" style="edgeStyle=orthogonalEdgeStyle;rounded=0;orthogonalLoop=1;jettySize=auto;html=1;dashed=1;exitX=0.5;exitY=0;exitDx=0;exitDy=0;" parent="WIyWlLk6GJQsqaUBKTNV-1" source="qvqpCW7Pz-lQNfFqi8u_-8" target="qvqpCW7Pz-lQNfFqi8u_-4" edge="1">
          <mxGeometry relative="1" as="geometry" />
        </mxCell>
        <mxCell id="qvqpCW7Pz-lQNfFqi8u_-8" value="DeckService" style="swimlane;fontStyle=0;childLayout=stackLayout;horizontal=1;startSize=26;fillColor=none;horizontalStack=0;resizeParent=1;resizeParentMax=0;resizeLast=0;collapsible=1;marginBottom=0;whiteSpace=wrap;html=1;" parent="WIyWlLk6GJQsqaUBKTNV-1" vertex="1">
          <mxGeometry x="53" y="510" width="140" height="104" as="geometry" />
        </mxCell>
        <mxCell id="qvqpCW7Pz-lQNfFqi8u_-9" value="- deck: CardPile" style="text;strokeColor=none;fillColor=none;align=left;verticalAlign=top;spacingLeft=4;spacingRight=4;overflow=hidden;rotatable=0;points=[[0,0.5],[1,0.5]];portConstraint=eastwest;whiteSpace=wrap;html=1;" parent="qvqpCW7Pz-lQNfFqi8u_-8" vertex="1">
          <mxGeometry y="26" width="140" height="26" as="geometry" />
        </mxCell>
        <mxCell id="qvqpCW7Pz-lQNfFqi8u_-10" value="+ DrawFromTop(): void" style="text;strokeColor=none;fillColor=none;align=left;verticalAlign=top;spacingLeft=4;spacingRight=4;overflow=hidden;rotatable=0;points=[[0,0.5],[1,0.5]];portConstraint=eastwest;whiteSpace=wrap;html=1;" parent="qvqpCW7Pz-lQNfFqi8u_-8" vertex="1">
          <mxGeometry y="52" width="140" height="26" as="geometry" />
        </mxCell>
        <mxCell id="qvqpCW7Pz-lQNfFqi8u_-11" value="+ Shuffle(): void" style="text;strokeColor=none;fillColor=none;align=left;verticalAlign=top;spacingLeft=4;spacingRight=4;overflow=hidden;rotatable=0;points=[[0,0.5],[1,0.5]];portConstraint=eastwest;whiteSpace=wrap;html=1;" parent="qvqpCW7Pz-lQNfFqi8u_-8" vertex="1">
          <mxGeometry y="78" width="140" height="26" as="geometry" />
        </mxCell>
        <mxCell id="dDIwDJEJSTGHqXr8lB01-7" style="edgeStyle=orthogonalEdgeStyle;rounded=0;orthogonalLoop=1;jettySize=auto;html=1;dashed=1;" parent="WIyWlLk6GJQsqaUBKTNV-1" source="qvqpCW7Pz-lQNfFqi8u_-16" target="qvqpCW7Pz-lQNfFqi8u_-4" edge="1">
          <mxGeometry relative="1" as="geometry" />
        </mxCell>
        <mxCell id="qvqpCW7Pz-lQNfFqi8u_-16" value="DiscardPileService" style="swimlane;fontStyle=0;childLayout=stackLayout;horizontal=1;startSize=26;fillColor=none;horizontalStack=0;resizeParent=1;resizeParentMax=0;resizeLast=0;collapsible=1;marginBottom=0;whiteSpace=wrap;html=1;" parent="WIyWlLk6GJQsqaUBKTNV-1" vertex="1">
          <mxGeometry x="210" y="510" width="140" height="78" as="geometry" />
        </mxCell>
        <mxCell id="qvqpCW7Pz-lQNfFqi8u_-17" value="- discardPile:&amp;nbsp; CardPile" style="text;strokeColor=none;fillColor=none;align=left;verticalAlign=top;spacingLeft=4;spacingRight=4;overflow=hidden;rotatable=0;points=[[0,0.5],[1,0.5]];portConstraint=eastwest;whiteSpace=wrap;html=1;" parent="qvqpCW7Pz-lQNfFqi8u_-16" vertex="1">
          <mxGeometry y="26" width="140" height="26" as="geometry" />
        </mxCell>
        <mxCell id="qvqpCW7Pz-lQNfFqi8u_-19" value="+ addToPile(Card): void" style="text;strokeColor=none;fillColor=none;align=left;verticalAlign=top;spacingLeft=4;spacingRight=4;overflow=hidden;rotatable=0;points=[[0,0.5],[1,0.5]];portConstraint=eastwest;whiteSpace=wrap;html=1;" parent="qvqpCW7Pz-lQNfFqi8u_-16" vertex="1">
          <mxGeometry y="52" width="140" height="26" as="geometry" />
        </mxCell>
        <mxCell id="9NOFG1vIKV7tSebcZaDs-65" style="edgeStyle=orthogonalEdgeStyle;rounded=0;orthogonalLoop=1;jettySize=auto;html=1;dashed=1;exitX=1;exitY=0.5;exitDx=0;exitDy=0;" edge="1" parent="WIyWlLk6GJQsqaUBKTNV-1">
          <mxGeometry relative="1" as="geometry">
            <mxPoint x="1390" y="672" as="sourcePoint" />
            <mxPoint x="203" y="192" as="targetPoint" />
            <Array as="points">
              <mxPoint x="1390" y="662" />
              <mxPoint x="1460" y="662" />
              <mxPoint x="1460" y="192" />
            </Array>
          </mxGeometry>
        </mxCell>
        <mxCell id="qvqpCW7Pz-lQNfFqi8u_-26" value="CardVaultRepository" style="swimlane;fontStyle=0;childLayout=stackLayout;horizontal=1;startSize=30;fillColor=none;horizontalStack=0;resizeParent=1;resizeParentMax=0;resizeLast=0;collapsible=1;marginBottom=0;whiteSpace=wrap;html=1;" parent="WIyWlLk6GJQsqaUBKTNV-1" vertex="1">
          <mxGeometry x="1190" y="640" width="200" height="60" as="geometry">
            <mxRectangle x="620" y="30" width="150" height="30" as="alternateBounds" />
          </mxGeometry>
        </mxCell>
        <mxCell id="qvqpCW7Pz-lQNfFqi8u_-29" value="- LoadFromPath(): HashSet&amp;lt;Card&amp;gt;" style="text;html=1;align=center;verticalAlign=middle;resizable=0;points=[];autosize=1;strokeColor=none;fillColor=none;" parent="qvqpCW7Pz-lQNfFqi8u_-26" vertex="1">
          <mxGeometry y="30" width="200" height="30" as="geometry" />
        </mxCell>
        <mxCell id="dDIwDJEJSTGHqXr8lB01-4" style="edgeStyle=orthogonalEdgeStyle;rounded=0;orthogonalLoop=1;jettySize=auto;html=1;dashed=1;exitX=0.5;exitY=0;exitDx=0;exitDy=0;" parent="WIyWlLk6GJQsqaUBKTNV-1" source="qvqpCW7Pz-lQNfFqi8u_-32" target="dDIwDJEJSTGHqXr8lB01-2" edge="1">
          <mxGeometry relative="1" as="geometry" />
        </mxCell>
        <mxCell id="qvqpCW7Pz-lQNfFqi8u_-32" value="PlayerHand" style="swimlane;fontStyle=0;childLayout=stackLayout;horizontal=1;startSize=26;fillColor=none;horizontalStack=0;resizeParent=1;resizeParentMax=0;resizeLast=0;collapsible=1;marginBottom=0;whiteSpace=wrap;html=1;" parent="WIyWlLk6GJQsqaUBKTNV-1" vertex="1">
          <mxGeometry x="-140" y="310" width="150" height="52" as="geometry" />
        </mxCell>
        <mxCell id="qvqpCW7Pz-lQNfFqi8u_-33" value="- cards: List&amp;lt;Card&amp;gt;" style="text;strokeColor=none;fillColor=none;align=left;verticalAlign=top;spacingLeft=4;spacingRight=4;overflow=hidden;rotatable=0;points=[[0,0.5],[1,0.5]];portConstraint=eastwest;whiteSpace=wrap;html=1;" parent="qvqpCW7Pz-lQNfFqi8u_-32" vertex="1">
          <mxGeometry y="26" width="150" height="26" as="geometry" />
        </mxCell>
        <mxCell id="9NOFG1vIKV7tSebcZaDs-73" style="edgeStyle=orthogonalEdgeStyle;rounded=0;orthogonalLoop=1;jettySize=auto;html=1;entryX=0.418;entryY=0.992;entryDx=0;entryDy=0;entryPerimeter=0;dashed=1;" edge="1" parent="WIyWlLk6GJQsqaUBKTNV-1" source="qvqpCW7Pz-lQNfFqi8u_-35" target="qvqpCW7Pz-lQNfFqi8u_-33">
          <mxGeometry relative="1" as="geometry" />
        </mxCell>
        <mxCell id="9NOFG1vIKV7tSebcZaDs-74" style="edgeStyle=orthogonalEdgeStyle;rounded=0;orthogonalLoop=1;jettySize=auto;html=1;dashed=1;" edge="1" parent="WIyWlLk6GJQsqaUBKTNV-1" source="qvqpCW7Pz-lQNfFqi8u_-35" target="dDIwDJEJSTGHqXr8lB01-23">
          <mxGeometry relative="1" as="geometry">
            <Array as="points">
              <mxPoint x="-200" y="580" />
              <mxPoint x="-200" y="580" />
            </Array>
          </mxGeometry>
        </mxCell>
        <mxCell id="qvqpCW7Pz-lQNfFqi8u_-35" value="PlayerHandService" style="swimlane;fontStyle=0;childLayout=stackLayout;horizontal=1;startSize=26;fillColor=none;horizontalStack=0;resizeParent=1;resizeParentMax=0;resizeLast=0;collapsible=1;marginBottom=0;whiteSpace=wrap;html=1;" parent="WIyWlLk6GJQsqaUBKTNV-1" vertex="1">
          <mxGeometry x="-155" y="510" width="155" height="140" as="geometry" />
        </mxCell>
        <mxCell id="qvqpCW7Pz-lQNfFqi8u_-36" value="- playerHand: PlayerHand" style="text;strokeColor=none;fillColor=none;align=left;verticalAlign=top;spacingLeft=4;spacingRight=4;overflow=hidden;rotatable=0;points=[[0,0.5],[1,0.5]];portConstraint=eastwest;whiteSpace=wrap;html=1;" parent="qvqpCW7Pz-lQNfFqi8u_-35" vertex="1">
          <mxGeometry y="26" width="155" height="26" as="geometry" />
        </mxCell>
        <mxCell id="qvqpCW7Pz-lQNfFqi8u_-37" value="+ PlayAtIndex(index: int): void" style="text;strokeColor=none;fillColor=none;align=left;verticalAlign=top;spacingLeft=4;spacingRight=4;overflow=hidden;rotatable=0;points=[[0,0.5],[1,0.5]];portConstraint=eastwest;whiteSpace=wrap;html=1;" parent="qvqpCW7Pz-lQNfFqi8u_-35" vertex="1">
          <mxGeometry y="52" width="155" height="38" as="geometry" />
        </mxCell>
        <mxCell id="qvqpCW7Pz-lQNfFqi8u_-39" value="+ CanBePlayedAtIndex&lt;br&gt;(index: int): void" style="text;strokeColor=none;fillColor=none;align=left;verticalAlign=top;spacingLeft=4;spacingRight=4;overflow=hidden;rotatable=0;points=[[0,0.5],[1,0.5]];portConstraint=eastwest;whiteSpace=wrap;html=1;" parent="qvqpCW7Pz-lQNfFqi8u_-35" vertex="1">
          <mxGeometry y="90" width="155" height="50" as="geometry" />
        </mxCell>
        <mxCell id="dDIwDJEJSTGHqXr8lB01-2" value="Card" style="swimlane;fontStyle=0;childLayout=stackLayout;horizontal=1;startSize=26;fillColor=none;horizontalStack=0;resizeParent=1;resizeParentMax=0;resizeLast=0;collapsible=1;marginBottom=0;whiteSpace=wrap;html=1;" parent="WIyWlLk6GJQsqaUBKTNV-1" vertex="1">
          <mxGeometry x="53" y="144" width="150" height="208" as="geometry" />
        </mxCell>
        <mxCell id="dDIwDJEJSTGHqXr8lB01-10" value="- name: string" style="text;strokeColor=none;fillColor=none;align=left;verticalAlign=top;spacingLeft=4;spacingRight=4;overflow=hidden;rotatable=0;points=[[0,0.5],[1,0.5]];portConstraint=eastwest;whiteSpace=wrap;html=1;" parent="dDIwDJEJSTGHqXr8lB01-2" vertex="1">
          <mxGeometry y="26" width="150" height="26" as="geometry" />
        </mxCell>
        <mxCell id="dDIwDJEJSTGHqXr8lB01-11" value="- sprite: Sprite" style="text;strokeColor=none;fillColor=none;align=left;verticalAlign=top;spacingLeft=4;spacingRight=4;overflow=hidden;rotatable=0;points=[[0,0.5],[1,0.5]];portConstraint=eastwest;whiteSpace=wrap;html=1;" parent="dDIwDJEJSTGHqXr8lB01-2" vertex="1">
          <mxGeometry y="52" width="150" height="26" as="geometry" />
        </mxCell>
        <mxCell id="dDIwDJEJSTGHqXr8lB01-12" value="- type: CardType" style="text;strokeColor=none;fillColor=none;align=left;verticalAlign=top;spacingLeft=4;spacingRight=4;overflow=hidden;rotatable=0;points=[[0,0.5],[1,0.5]];portConstraint=eastwest;whiteSpace=wrap;html=1;" parent="dDIwDJEJSTGHqXr8lB01-2" vertex="1">
          <mxGeometry y="78" width="150" height="26" as="geometry" />
        </mxCell>
        <mxCell id="FwULBE35Prdf7N5nhsue-0" value="- class: CardClass" style="text;strokeColor=none;fillColor=none;align=left;verticalAlign=top;spacingLeft=4;spacingRight=4;overflow=hidden;rotatable=0;points=[[0,0.5],[1,0.5]];portConstraint=eastwest;whiteSpace=wrap;html=1;" parent="dDIwDJEJSTGHqXr8lB01-2" vertex="1">
          <mxGeometry y="104" width="150" height="26" as="geometry" />
        </mxCell>
        <mxCell id="kyEuraz-bxoVGQhwH_C7-1" value="- effects: CardEffect[]" style="text;strokeColor=none;fillColor=none;align=left;verticalAlign=top;spacingLeft=4;spacingRight=4;overflow=hidden;rotatable=0;points=[[0,0.5],[1,0.5]];portConstraint=eastwest;whiteSpace=wrap;html=1;" parent="dDIwDJEJSTGHqXr8lB01-2" vertex="1">
          <mxGeometry y="130" width="150" height="26" as="geometry" />
        </mxCell>
        <mxCell id="kyEuraz-bxoVGQhwH_C7-23" value="- cost: UnitTime" style="text;strokeColor=none;fillColor=none;align=left;verticalAlign=top;spacingLeft=4;spacingRight=4;overflow=hidden;rotatable=0;points=[[0,0.5],[1,0.5]];portConstraint=eastwest;whiteSpace=wrap;html=1;" parent="dDIwDJEJSTGHqXr8lB01-2" vertex="1">
          <mxGeometry y="156" width="150" height="26" as="geometry" />
        </mxCell>
        <mxCell id="kyEuraz-bxoVGQhwH_C7-35" value="- rarity: Rarity" style="text;strokeColor=none;fillColor=none;align=left;verticalAlign=top;spacingLeft=4;spacingRight=4;overflow=hidden;rotatable=0;points=[[0,0.5],[1,0.5]];portConstraint=eastwest;whiteSpace=wrap;html=1;" parent="dDIwDJEJSTGHqXr8lB01-2" vertex="1">
          <mxGeometry y="182" width="150" height="26" as="geometry" />
        </mxCell>
        <mxCell id="dDIwDJEJSTGHqXr8lB01-23" value="GameBoardService" style="swimlane;fontStyle=0;childLayout=stackLayout;horizontal=1;startSize=26;fillColor=none;horizontalStack=0;resizeParent=1;resizeParentMax=0;resizeLast=0;collapsible=1;marginBottom=0;whiteSpace=wrap;html=1;" parent="WIyWlLk6GJQsqaUBKTNV-1" vertex="1">
          <mxGeometry x="-455" y="510" width="225" height="140" as="geometry" />
        </mxCell>
        <mxCell id="dDIwDJEJSTGHqXr8lB01-24" value="- cardSlots: Card[]" style="text;strokeColor=none;fillColor=none;align=left;verticalAlign=top;spacingLeft=4;spacingRight=4;overflow=hidden;rotatable=0;points=[[0,0.5],[1,0.5]];portConstraint=eastwest;whiteSpace=wrap;html=1;" parent="dDIwDJEJSTGHqXr8lB01-23" vertex="1">
          <mxGeometry y="26" width="225" height="26" as="geometry" />
        </mxCell>
        <mxCell id="dDIwDJEJSTGHqXr8lB01-25" value="+ AddCardToSlot(index: int): void" style="text;strokeColor=none;fillColor=none;align=left;verticalAlign=top;spacingLeft=4;spacingRight=4;overflow=hidden;rotatable=0;points=[[0,0.5],[1,0.5]];portConstraint=eastwest;whiteSpace=wrap;html=1;" parent="dDIwDJEJSTGHqXr8lB01-23" vertex="1">
          <mxGeometry y="52" width="225" height="38" as="geometry" />
        </mxCell>
        <mxCell id="dDIwDJEJSTGHqXr8lB01-26" value="+ CanBeAddedToSlot AtIndex(index: int): void" style="text;strokeColor=none;fillColor=none;align=left;verticalAlign=top;spacingLeft=4;spacingRight=4;overflow=hidden;rotatable=0;points=[[0,0.5],[1,0.5]];portConstraint=eastwest;whiteSpace=wrap;html=1;" parent="dDIwDJEJSTGHqXr8lB01-23" vertex="1">
          <mxGeometry y="90" width="225" height="50" as="geometry" />
        </mxCell>
        <mxCell id="dDIwDJEJSTGHqXr8lB01-28" value="MoveBackToDeckCardEffect" style="swimlane;fontStyle=0;childLayout=stackLayout;horizontal=1;startSize=26;fillColor=none;horizontalStack=0;resizeParent=1;resizeParentMax=0;resizeLast=0;collapsible=1;marginBottom=0;whiteSpace=wrap;html=1;" parent="WIyWlLk6GJQsqaUBKTNV-1" vertex="1">
          <mxGeometry x="-780" y="125" width="190" height="52" as="geometry" />
        </mxCell>
        <mxCell id="dDIwDJEJSTGHqXr8lB01-32" value="+ override Execute: void" style="text;strokeColor=none;fillColor=none;align=left;verticalAlign=top;spacingLeft=4;spacingRight=4;overflow=hidden;rotatable=0;points=[[0,0.5],[1,0.5]];portConstraint=eastwest;whiteSpace=wrap;html=1;" parent="dDIwDJEJSTGHqXr8lB01-28" vertex="1">
          <mxGeometry y="26" width="190" height="26" as="geometry" />
        </mxCell>
        <mxCell id="dDIwDJEJSTGHqXr8lB01-35" value="Attack" style="swimlane;fontStyle=0;childLayout=stackLayout;horizontal=1;startSize=26;fillColor=none;horizontalStack=0;resizeParent=1;resizeParentMax=0;resizeLast=0;collapsible=1;marginBottom=0;whiteSpace=wrap;html=1;" parent="WIyWlLk6GJQsqaUBKTNV-1" vertex="1">
          <mxGeometry x="-780" y="190" width="190" height="52" as="geometry" />
        </mxCell>
        <mxCell id="dDIwDJEJSTGHqXr8lB01-36" value="+ override Execute: void" style="text;strokeColor=none;fillColor=none;align=left;verticalAlign=top;spacingLeft=4;spacingRight=4;overflow=hidden;rotatable=0;points=[[0,0.5],[1,0.5]];portConstraint=eastwest;whiteSpace=wrap;html=1;" parent="dDIwDJEJSTGHqXr8lB01-35" vertex="1">
          <mxGeometry y="26" width="190" height="26" as="geometry" />
        </mxCell>
        <mxCell id="dDIwDJEJSTGHqXr8lB01-38" value="..." style="text;html=1;align=center;verticalAlign=middle;resizable=0;points=[];autosize=1;strokeColor=none;fillColor=none;" parent="WIyWlLk6GJQsqaUBKTNV-1" vertex="1">
          <mxGeometry x="-700" y="248" width="30" height="30" as="geometry" />
        </mxCell>
        <mxCell id="dDIwDJEJSTGHqXr8lB01-39" value="MoveToDiscardPile" style="swimlane;fontStyle=0;childLayout=stackLayout;horizontal=1;startSize=26;fillColor=none;horizontalStack=0;resizeParent=1;resizeParentMax=0;resizeLast=0;collapsible=1;marginBottom=0;whiteSpace=wrap;html=1;" parent="WIyWlLk6GJQsqaUBKTNV-1" vertex="1">
          <mxGeometry x="-780" y="290" width="190" height="52" as="geometry" />
        </mxCell>
        <mxCell id="dDIwDJEJSTGHqXr8lB01-40" value="+ override Execute: void" style="text;strokeColor=none;fillColor=none;align=left;verticalAlign=top;spacingLeft=4;spacingRight=4;overflow=hidden;rotatable=0;points=[[0,0.5],[1,0.5]];portConstraint=eastwest;whiteSpace=wrap;html=1;" parent="dDIwDJEJSTGHqXr8lB01-39" vertex="1">
          <mxGeometry y="26" width="190" height="26" as="geometry" />
        </mxCell>
        <mxCell id="dDIwDJEJSTGHqXr8lB01-46" value="Entity" style="text;html=1;strokeColor=none;fillColor=none;align=center;verticalAlign=middle;whiteSpace=wrap;rounded=0;" parent="WIyWlLk6GJQsqaUBKTNV-1" vertex="1">
          <mxGeometry x="-800" y="90" width="40" height="20" as="geometry" />
        </mxCell>
        <mxCell id="dDIwDJEJSTGHqXr8lB01-48" value="Service" style="text;html=1;align=center;verticalAlign=middle;resizable=0;points=[];autosize=1;strokeColor=none;fillColor=none;fontSize=10;" parent="WIyWlLk6GJQsqaUBKTNV-1" vertex="1">
          <mxGeometry x="-810" y="464" width="60" height="30" as="geometry" />
        </mxCell>
        <mxCell id="dDIwDJEJSTGHqXr8lB01-51" value="" style="shape=cylinder3;whiteSpace=wrap;html=1;boundedLbl=1;backgroundOutline=1;size=15;" parent="WIyWlLk6GJQsqaUBKTNV-1" vertex="1">
          <mxGeometry x="1260" y="560" width="60" height="80" as="geometry" />
        </mxCell>
        <mxCell id="FwULBE35Prdf7N5nhsue-1" value="SO" style="ellipse;shape=umlEntity;whiteSpace=wrap;html=1;fontSize=16;" parent="WIyWlLk6GJQsqaUBKTNV-1" vertex="1">
          <mxGeometry x="88" y="64" width="80" height="80" as="geometry" />
        </mxCell>
        <mxCell id="FwULBE35Prdf7N5nhsue-2" value="SO" style="ellipse;shape=umlEntity;whiteSpace=wrap;html=1;fontSize=16;" parent="WIyWlLk6GJQsqaUBKTNV-1" vertex="1">
          <mxGeometry x="-400" y="63" width="80" height="80" as="geometry" />
        </mxCell>
        <mxCell id="kyEuraz-bxoVGQhwH_C7-42" value="&lt;i&gt;&lt;span style=&quot;font-weight: normal;&quot;&gt;abstract&lt;/span&gt; &lt;/i&gt;&lt;span style=&quot;font-weight: normal;&quot;&gt;CardEffect&lt;/span&gt;" style="swimlane;fontStyle=1;align=center;verticalAlign=top;childLayout=stackLayout;horizontal=1;startSize=26;horizontalStack=0;resizeParent=1;resizeParentMax=0;resizeLast=0;collapsible=1;marginBottom=0;whiteSpace=wrap;html=1;" parent="WIyWlLk6GJQsqaUBKTNV-1" vertex="1">
          <mxGeometry x="-450" y="143" width="180" height="114" as="geometry" />
        </mxCell>
        <mxCell id="kyEuraz-bxoVGQhwH_C7-43" value="+ description: string&lt;br&gt;+ type: EffectType&lt;br&gt;+ isImmediate: bool" style="text;strokeColor=none;fillColor=none;align=left;verticalAlign=top;spacingLeft=4;spacingRight=4;overflow=hidden;rotatable=0;points=[[0,0.5],[1,0.5]];portConstraint=eastwest;whiteSpace=wrap;html=1;" parent="kyEuraz-bxoVGQhwH_C7-42" vertex="1">
          <mxGeometry y="26" width="180" height="54" as="geometry" />
        </mxCell>
        <mxCell id="kyEuraz-bxoVGQhwH_C7-44" value="" style="line;strokeWidth=1;fillColor=none;align=left;verticalAlign=middle;spacingTop=-1;spacingLeft=3;spacingRight=3;rotatable=0;labelPosition=right;points=[];portConstraint=eastwest;strokeColor=inherit;" parent="kyEuraz-bxoVGQhwH_C7-42" vertex="1">
          <mxGeometry y="80" width="180" height="8" as="geometry" />
        </mxCell>
        <mxCell id="kyEuraz-bxoVGQhwH_C7-45" value="+ abstract Execute(): void" style="text;strokeColor=none;fillColor=none;align=left;verticalAlign=top;spacingLeft=4;spacingRight=4;overflow=hidden;rotatable=0;points=[[0,0.5],[1,0.5]];portConstraint=eastwest;whiteSpace=wrap;html=1;" parent="kyEuraz-bxoVGQhwH_C7-42" vertex="1">
          <mxGeometry y="88" width="180" height="26" as="geometry" />
        </mxCell>
        <mxCell id="kyEuraz-bxoVGQhwH_C7-51" style="edgeStyle=orthogonalEdgeStyle;rounded=0;orthogonalLoop=1;jettySize=auto;html=1;entryX=0;entryY=0.5;entryDx=0;entryDy=0;" parent="WIyWlLk6GJQsqaUBKTNV-1" source="dDIwDJEJSTGHqXr8lB01-32" target="kyEuraz-bxoVGQhwH_C7-43" edge="1">
          <mxGeometry relative="1" as="geometry" />
        </mxCell>
        <mxCell id="kyEuraz-bxoVGQhwH_C7-52" style="edgeStyle=orthogonalEdgeStyle;rounded=0;orthogonalLoop=1;jettySize=auto;html=1;entryX=0;entryY=0.5;entryDx=0;entryDy=0;" parent="WIyWlLk6GJQsqaUBKTNV-1" source="dDIwDJEJSTGHqXr8lB01-36" target="kyEuraz-bxoVGQhwH_C7-43" edge="1">
          <mxGeometry relative="1" as="geometry" />
        </mxCell>
        <mxCell id="kyEuraz-bxoVGQhwH_C7-54" style="edgeStyle=orthogonalEdgeStyle;rounded=0;orthogonalLoop=1;jettySize=auto;html=1;entryX=1.012;entryY=0.752;entryDx=0;entryDy=0;entryPerimeter=0;dashed=1;" parent="WIyWlLk6GJQsqaUBKTNV-1" source="dDIwDJEJSTGHqXr8lB01-11" target="kyEuraz-bxoVGQhwH_C7-43" edge="1">
          <mxGeometry relative="1" as="geometry" />
        </mxCell>
        <mxCell id="kyEuraz-bxoVGQhwH_C7-55" style="edgeStyle=orthogonalEdgeStyle;rounded=0;orthogonalLoop=1;jettySize=auto;html=1;entryX=0.563;entryY=1.085;entryDx=0;entryDy=0;entryPerimeter=0;exitX=1.003;exitY=0;exitDx=0;exitDy=0;exitPerimeter=0;" parent="WIyWlLk6GJQsqaUBKTNV-1" source="dDIwDJEJSTGHqXr8lB01-40" edge="1">
          <mxGeometry relative="1" as="geometry">
            <mxPoint x="-560" y="318" as="sourcePoint" />
            <mxPoint x="-353.2200000000001" y="257.00000000000006" as="targetPoint" />
            <Array as="points">
              <mxPoint x="-589" y="318" />
              <mxPoint x="-353" y="318" />
            </Array>
          </mxGeometry>
        </mxCell>
        <mxCell id="9NOFG1vIKV7tSebcZaDs-66" style="edgeStyle=orthogonalEdgeStyle;rounded=0;orthogonalLoop=1;jettySize=auto;html=1;entryX=0.463;entryY=0.981;entryDx=0;entryDy=0;entryPerimeter=0;dashed=1;" edge="1" parent="WIyWlLk6GJQsqaUBKTNV-1" source="9NOFG1vIKV7tSebcZaDs-21" target="9NOFG1vIKV7tSebcZaDs-27">
          <mxGeometry relative="1" as="geometry" />
        </mxCell>
        <mxCell id="9NOFG1vIKV7tSebcZaDs-21" value="&lt;span style=&quot;font-weight: normal;&quot;&gt;CardVaultService&lt;/span&gt;" style="swimlane;fontStyle=1;align=center;verticalAlign=top;childLayout=stackLayout;horizontal=1;startSize=26;horizontalStack=0;resizeParent=1;resizeParentMax=0;resizeLast=0;collapsible=1;marginBottom=0;whiteSpace=wrap;html=1;" vertex="1" parent="WIyWlLk6GJQsqaUBKTNV-1">
          <mxGeometry x="541" y="666" width="290" height="104" as="geometry" />
        </mxCell>
        <mxCell id="9NOFG1vIKV7tSebcZaDs-22" value="+ cardVault: CardVault&lt;br&gt;+ cardVaultRepository: CardVaultRepository" style="text;strokeColor=none;fillColor=none;align=left;verticalAlign=top;spacingLeft=4;spacingRight=4;overflow=hidden;rotatable=0;points=[[0,0.5],[1,0.5]];portConstraint=eastwest;whiteSpace=wrap;html=1;" vertex="1" parent="9NOFG1vIKV7tSebcZaDs-21">
          <mxGeometry y="26" width="290" height="44" as="geometry" />
        </mxCell>
        <mxCell id="9NOFG1vIKV7tSebcZaDs-23" value="" style="line;strokeWidth=1;fillColor=none;align=left;verticalAlign=middle;spacingTop=-1;spacingLeft=3;spacingRight=3;rotatable=0;labelPosition=right;points=[];portConstraint=eastwest;strokeColor=inherit;" vertex="1" parent="9NOFG1vIKV7tSebcZaDs-21">
          <mxGeometry y="70" width="290" height="8" as="geometry" />
        </mxCell>
        <mxCell id="9NOFG1vIKV7tSebcZaDs-24" value="+ setCardVault(): void" style="text;strokeColor=none;fillColor=none;align=left;verticalAlign=top;spacingLeft=4;spacingRight=4;overflow=hidden;rotatable=0;points=[[0,0.5],[1,0.5]];portConstraint=eastwest;whiteSpace=wrap;html=1;" vertex="1" parent="9NOFG1vIKV7tSebcZaDs-21">
          <mxGeometry y="78" width="290" height="26" as="geometry" />
        </mxCell>
        <mxCell id="9NOFG1vIKV7tSebcZaDs-80" style="edgeStyle=orthogonalEdgeStyle;rounded=0;orthogonalLoop=1;jettySize=auto;html=1;entryX=1.007;entryY=0.077;entryDx=0;entryDy=0;entryPerimeter=0;dashed=1;" edge="1" parent="WIyWlLk6GJQsqaUBKTNV-1" source="9NOFG1vIKV7tSebcZaDs-26" target="dDIwDJEJSTGHqXr8lB01-12">
          <mxGeometry relative="1" as="geometry" />
        </mxCell>
        <mxCell id="9NOFG1vIKV7tSebcZaDs-26" value="CardVault" style="swimlane;fontStyle=0;childLayout=stackLayout;horizontal=1;startSize=26;fillColor=none;horizontalStack=0;resizeParent=1;resizeParentMax=0;resizeLast=0;collapsible=1;marginBottom=0;whiteSpace=wrap;html=1;" vertex="1" parent="WIyWlLk6GJQsqaUBKTNV-1">
          <mxGeometry x="607" y="310" width="170" height="52" as="geometry" />
        </mxCell>
        <mxCell id="9NOFG1vIKV7tSebcZaDs-27" value="- cards: HashSet&amp;lt;Card&amp;gt;" style="text;strokeColor=none;fillColor=none;align=left;verticalAlign=top;spacingLeft=4;spacingRight=4;overflow=hidden;rotatable=0;points=[[0,0.5],[1,0.5]];portConstraint=eastwest;whiteSpace=wrap;html=1;" vertex="1" parent="9NOFG1vIKV7tSebcZaDs-26">
          <mxGeometry y="26" width="170" height="26" as="geometry" />
        </mxCell>
        <mxCell id="9NOFG1vIKV7tSebcZaDs-30" style="edgeStyle=orthogonalEdgeStyle;rounded=0;orthogonalLoop=1;jettySize=auto;html=1;shape=link;" edge="1" parent="WIyWlLk6GJQsqaUBKTNV-1" source="9NOFG1vIKV7tSebcZaDs-22" target="qvqpCW7Pz-lQNfFqi8u_-29">
          <mxGeometry relative="1" as="geometry" />
        </mxCell>
        <mxCell id="9NOFG1vIKV7tSebcZaDs-77" style="edgeStyle=orthogonalEdgeStyle;rounded=0;orthogonalLoop=1;jettySize=auto;html=1;dashed=1;" edge="1" parent="WIyWlLk6GJQsqaUBKTNV-1" source="9NOFG1vIKV7tSebcZaDs-31" target="dDIwDJEJSTGHqXr8lB01-12">
          <mxGeometry relative="1" as="geometry" />
        </mxCell>
        <mxCell id="9NOFG1vIKV7tSebcZaDs-31" value="CardPool" style="swimlane;fontStyle=0;childLayout=stackLayout;horizontal=1;startSize=26;fillColor=none;horizontalStack=0;resizeParent=1;resizeParentMax=0;resizeLast=0;collapsible=1;marginBottom=0;whiteSpace=wrap;html=1;" vertex="1" parent="WIyWlLk6GJQsqaUBKTNV-1">
          <mxGeometry x="438" y="310" width="150" height="52" as="geometry" />
        </mxCell>
        <mxCell id="9NOFG1vIKV7tSebcZaDs-32" value="- cards: List&amp;lt;Card&amp;gt;" style="text;strokeColor=none;fillColor=none;align=left;verticalAlign=top;spacingLeft=4;spacingRight=4;overflow=hidden;rotatable=0;points=[[0,0.5],[1,0.5]];portConstraint=eastwest;whiteSpace=wrap;html=1;" vertex="1" parent="9NOFG1vIKV7tSebcZaDs-31">
          <mxGeometry y="26" width="150" height="26" as="geometry" />
        </mxCell>
        <mxCell id="9NOFG1vIKV7tSebcZaDs-41" style="edgeStyle=orthogonalEdgeStyle;rounded=0;orthogonalLoop=1;jettySize=auto;html=1;entryX=0.496;entryY=1.032;entryDx=0;entryDy=0;entryPerimeter=0;dashed=1;" edge="1" parent="WIyWlLk6GJQsqaUBKTNV-1" source="9NOFG1vIKV7tSebcZaDs-33" target="9NOFG1vIKV7tSebcZaDs-32">
          <mxGeometry relative="1" as="geometry" />
        </mxCell>
        <mxCell id="9NOFG1vIKV7tSebcZaDs-33" value="&lt;span style=&quot;font-weight: normal;&quot;&gt;CardPoolService&lt;/span&gt;" style="swimlane;fontStyle=1;align=center;verticalAlign=top;childLayout=stackLayout;horizontal=1;startSize=26;horizontalStack=0;resizeParent=1;resizeParentMax=0;resizeLast=0;collapsible=1;marginBottom=0;whiteSpace=wrap;html=1;" vertex="1" parent="WIyWlLk6GJQsqaUBKTNV-1">
          <mxGeometry x="368" y="510" width="290" height="110" as="geometry" />
        </mxCell>
        <mxCell id="9NOFG1vIKV7tSebcZaDs-34" value="+ cardPool:&amp;nbsp;CardPool" style="text;strokeColor=none;fillColor=none;align=left;verticalAlign=top;spacingLeft=4;spacingRight=4;overflow=hidden;rotatable=0;points=[[0,0.5],[1,0.5]];portConstraint=eastwest;whiteSpace=wrap;html=1;" vertex="1" parent="9NOFG1vIKV7tSebcZaDs-33">
          <mxGeometry y="26" width="290" height="24" as="geometry" />
        </mxCell>
        <mxCell id="9NOFG1vIKV7tSebcZaDs-35" value="" style="line;strokeWidth=1;fillColor=none;align=left;verticalAlign=middle;spacingTop=-1;spacingLeft=3;spacingRight=3;rotatable=0;labelPosition=right;points=[];portConstraint=eastwest;strokeColor=inherit;" vertex="1" parent="9NOFG1vIKV7tSebcZaDs-33">
          <mxGeometry y="50" width="290" height="8" as="geometry" />
        </mxCell>
        <mxCell id="9NOFG1vIKV7tSebcZaDs-36" value="+ AddCardToPool(card: Card): void" style="text;strokeColor=none;fillColor=none;align=left;verticalAlign=top;spacingLeft=4;spacingRight=4;overflow=hidden;rotatable=0;points=[[0,0.5],[1,0.5]];portConstraint=eastwest;whiteSpace=wrap;html=1;" vertex="1" parent="9NOFG1vIKV7tSebcZaDs-33">
          <mxGeometry y="58" width="290" height="26" as="geometry" />
        </mxCell>
        <mxCell id="9NOFG1vIKV7tSebcZaDs-62" value="+ RemoveCardFromPool(card: Card): void" style="text;strokeColor=none;fillColor=none;align=left;verticalAlign=top;spacingLeft=4;spacingRight=4;overflow=hidden;rotatable=0;points=[[0,0.5],[1,0.5]];portConstraint=eastwest;whiteSpace=wrap;html=1;" vertex="1" parent="9NOFG1vIKV7tSebcZaDs-33">
          <mxGeometry y="84" width="290" height="26" as="geometry" />
        </mxCell>
        <mxCell id="9NOFG1vIKV7tSebcZaDs-81" style="edgeStyle=orthogonalEdgeStyle;rounded=0;orthogonalLoop=1;jettySize=auto;html=1;entryX=1.001;entryY=0.69;entryDx=0;entryDy=0;entryPerimeter=0;dashed=1;" edge="1" parent="WIyWlLk6GJQsqaUBKTNV-1" source="9NOFG1vIKV7tSebcZaDs-37" target="dDIwDJEJSTGHqXr8lB01-11">
          <mxGeometry relative="1" as="geometry" />
        </mxCell>
        <mxCell id="9NOFG1vIKV7tSebcZaDs-37" value="StarterDeck" style="swimlane;fontStyle=0;childLayout=stackLayout;horizontal=1;startSize=26;fillColor=none;horizontalStack=0;resizeParent=1;resizeParentMax=0;resizeLast=0;collapsible=1;marginBottom=0;whiteSpace=wrap;html=1;" vertex="1" parent="WIyWlLk6GJQsqaUBKTNV-1">
          <mxGeometry x="790" y="310" width="150" height="52" as="geometry" />
        </mxCell>
        <mxCell id="9NOFG1vIKV7tSebcZaDs-38" value="- cards: List&amp;lt;Card&amp;gt;" style="text;strokeColor=none;fillColor=none;align=left;verticalAlign=top;spacingLeft=4;spacingRight=4;overflow=hidden;rotatable=0;points=[[0,0.5],[1,0.5]];portConstraint=eastwest;whiteSpace=wrap;html=1;" vertex="1" parent="9NOFG1vIKV7tSebcZaDs-37">
          <mxGeometry y="26" width="150" height="26" as="geometry" />
        </mxCell>
        <mxCell id="9NOFG1vIKV7tSebcZaDs-42" value="" style="shape=cylinder3;whiteSpace=wrap;html=1;boundedLbl=1;backgroundOutline=1;size=15;" vertex="1" parent="WIyWlLk6GJQsqaUBKTNV-1">
          <mxGeometry x="1260" y="358" width="60" height="80" as="geometry" />
        </mxCell>
        <mxCell id="9NOFG1vIKV7tSebcZaDs-63" style="edgeStyle=orthogonalEdgeStyle;rounded=0;orthogonalLoop=1;jettySize=auto;html=1;dashed=1;" edge="1" parent="WIyWlLk6GJQsqaUBKTNV-1" source="9NOFG1vIKV7tSebcZaDs-43" target="9NOFG1vIKV7tSebcZaDs-59">
          <mxGeometry relative="1" as="geometry">
            <Array as="points">
              <mxPoint x="1210" y="349" />
            </Array>
          </mxGeometry>
        </mxCell>
        <mxCell id="9NOFG1vIKV7tSebcZaDs-43" value="StarterDeckDefinitionRepository" style="swimlane;fontStyle=0;childLayout=stackLayout;horizontal=1;startSize=30;fillColor=none;horizontalStack=0;resizeParent=1;resizeParentMax=0;resizeLast=0;collapsible=1;marginBottom=0;whiteSpace=wrap;html=1;" vertex="1" parent="WIyWlLk6GJQsqaUBKTNV-1">
          <mxGeometry x="1190" y="438" width="220" height="60" as="geometry">
            <mxRectangle x="620" y="30" width="150" height="30" as="alternateBounds" />
          </mxGeometry>
        </mxCell>
        <mxCell id="9NOFG1vIKV7tSebcZaDs-44" value="- LoadFromPath(): StarterDeckDefinition" style="text;html=1;align=center;verticalAlign=middle;resizable=0;points=[];autosize=1;strokeColor=none;fillColor=none;" vertex="1" parent="9NOFG1vIKV7tSebcZaDs-43">
          <mxGeometry y="30" width="220" height="30" as="geometry" />
        </mxCell>
        <mxCell id="9NOFG1vIKV7tSebcZaDs-53" style="edgeStyle=orthogonalEdgeStyle;rounded=0;orthogonalLoop=1;jettySize=auto;html=1;entryX=0.433;entryY=0.981;entryDx=0;entryDy=0;entryPerimeter=0;dashed=1;" edge="1" parent="WIyWlLk6GJQsqaUBKTNV-1" source="9NOFG1vIKV7tSebcZaDs-47" target="9NOFG1vIKV7tSebcZaDs-38">
          <mxGeometry relative="1" as="geometry">
            <Array as="points">
              <mxPoint x="855" y="480" />
              <mxPoint x="855" y="480" />
            </Array>
          </mxGeometry>
        </mxCell>
        <mxCell id="9NOFG1vIKV7tSebcZaDs-47" value="&lt;span style=&quot;font-weight: normal;&quot;&gt;StarterDeckService&lt;/span&gt;" style="swimlane;fontStyle=1;align=center;verticalAlign=top;childLayout=stackLayout;horizontal=1;startSize=26;horizontalStack=0;resizeParent=1;resizeParentMax=0;resizeLast=0;collapsible=1;marginBottom=0;whiteSpace=wrap;html=1;" vertex="1" parent="WIyWlLk6GJQsqaUBKTNV-1">
          <mxGeometry x="710" y="515" width="380" height="104" as="geometry" />
        </mxCell>
        <mxCell id="9NOFG1vIKV7tSebcZaDs-48" value="+ starterDeck: StarterDeck&lt;br&gt;+ starterDeckDefinitionRepository:&amp;nbsp;StarterDeckDefinitionRepository" style="text;strokeColor=none;fillColor=none;align=left;verticalAlign=top;spacingLeft=4;spacingRight=4;overflow=hidden;rotatable=0;points=[[0,0.5],[1,0.5]];portConstraint=eastwest;whiteSpace=wrap;html=1;" vertex="1" parent="9NOFG1vIKV7tSebcZaDs-47">
          <mxGeometry y="26" width="380" height="44" as="geometry" />
        </mxCell>
        <mxCell id="9NOFG1vIKV7tSebcZaDs-49" value="" style="line;strokeWidth=1;fillColor=none;align=left;verticalAlign=middle;spacingTop=-1;spacingLeft=3;spacingRight=3;rotatable=0;labelPosition=right;points=[];portConstraint=eastwest;strokeColor=inherit;" vertex="1" parent="9NOFG1vIKV7tSebcZaDs-47">
          <mxGeometry y="70" width="380" height="8" as="geometry" />
        </mxCell>
        <mxCell id="9NOFG1vIKV7tSebcZaDs-50" value="+ setStarterDeck(): void" style="text;strokeColor=none;fillColor=none;align=left;verticalAlign=top;spacingLeft=4;spacingRight=4;overflow=hidden;rotatable=0;points=[[0,0.5],[1,0.5]];portConstraint=eastwest;whiteSpace=wrap;html=1;" vertex="1" parent="9NOFG1vIKV7tSebcZaDs-47">
          <mxGeometry y="78" width="380" height="26" as="geometry" />
        </mxCell>
        <mxCell id="9NOFG1vIKV7tSebcZaDs-82" style="edgeStyle=orthogonalEdgeStyle;rounded=0;orthogonalLoop=1;jettySize=auto;html=1;entryX=1.01;entryY=0.321;entryDx=0;entryDy=0;entryPerimeter=0;dashed=1;" edge="1" parent="WIyWlLk6GJQsqaUBKTNV-1" source="9NOFG1vIKV7tSebcZaDs-58" target="dDIwDJEJSTGHqXr8lB01-11">
          <mxGeometry relative="1" as="geometry">
            <Array as="points">
              <mxPoint x="980" y="204" />
            </Array>
          </mxGeometry>
        </mxCell>
        <mxCell id="9NOFG1vIKV7tSebcZaDs-58" value="StarterDeckDefinition" style="swimlane;fontStyle=0;childLayout=stackLayout;horizontal=1;startSize=26;fillColor=none;horizontalStack=0;resizeParent=1;resizeParentMax=0;resizeLast=0;collapsible=1;marginBottom=0;whiteSpace=wrap;html=1;" vertex="1" parent="WIyWlLk6GJQsqaUBKTNV-1">
          <mxGeometry x="960" y="310" width="150" height="52" as="geometry" />
        </mxCell>
        <mxCell id="9NOFG1vIKV7tSebcZaDs-59" value="- cards: List&amp;lt;Card&amp;gt;" style="text;strokeColor=none;fillColor=none;align=left;verticalAlign=top;spacingLeft=4;spacingRight=4;overflow=hidden;rotatable=0;points=[[0,0.5],[1,0.5]];portConstraint=eastwest;whiteSpace=wrap;html=1;" vertex="1" parent="9NOFG1vIKV7tSebcZaDs-58">
          <mxGeometry y="26" width="150" height="26" as="geometry" />
        </mxCell>
        <mxCell id="9NOFG1vIKV7tSebcZaDs-60" value="SO" style="ellipse;shape=umlEntity;whiteSpace=wrap;html=1;fontSize=16;" vertex="1" parent="WIyWlLk6GJQsqaUBKTNV-1">
          <mxGeometry x="995" y="230" width="80" height="80" as="geometry" />
        </mxCell>
        <mxCell id="9NOFG1vIKV7tSebcZaDs-61" style="edgeStyle=orthogonalEdgeStyle;rounded=0;orthogonalLoop=1;jettySize=auto;html=1;shape=link;entryX=0;entryY=0.183;entryDx=0;entryDy=0;entryPerimeter=0;" edge="1" parent="WIyWlLk6GJQsqaUBKTNV-1" source="9NOFG1vIKV7tSebcZaDs-48" target="9NOFG1vIKV7tSebcZaDs-44">
          <mxGeometry relative="1" as="geometry" />
        </mxCell>
      </root>
    </mxGraphModel>
  </diagram>
</mxfile>
